<svg version="1.1" xmlns="http://www.w3.org/2000/svg" xmlns:xlink="http://www.w3.org/1999/xlink" width="106.000000pt" height="106.000000pt" viewBox="0,0,256,256"><g fill="#494df7" fill-rule="nonzero" stroke="none" stroke-width="1" stroke-linecap="butt" stroke-linejoin="miter" stroke-miterlimit="10" stroke-dasharray="" stroke-dashoffset="0" font-family="none" font-weight="none" font-size="none" text-anchor="none" style="mix-blend-mode: normal"><g transform="translate(-0.34569,-0.3511) scale(2.41509,2.41509)"><g transform="translate(0,106) scale(0.1,-0.1)"><path d="M745,1021c-105,-27 -186,-128 -185,-233c1,-63 84,-237 165,-342l35,-46h-46c-50,0 -98,-20 -108,-45c-12,-31 -6,-73 13,-96c18,-23 26,-24 174,-29c134,-4 158,-8 176,-24c30,-27 28,-86 -2,-114c-23,-22 -29,-22 -326,-22c-239,0 -301,3 -297,13c3,6 9,20 12,29c5,13 21,18 73,20l66,3l12,80c6,44 12,103 12,131c1,53 -9,69 -69,106c-21,13 -32,39 -64,153c-68,239 -86,257 -251,253c-58,-2 -100,-7 -100,-13c0,-6 43,-12 100,-15c104,-5 133,-15 159,-52c27,-38 20,-48 -31,-48c-27,0 -54,-4 -61,-8c-18,-12 -30,-62 -38,-157c-6,-80 -6,-84 19,-109c25,-25 32,-26 127,-26c130,0 179,-21 180,-77c0,-20 -5,-23 -45,-23c-43,0 -44,-1 -51,-35c-9,-51 0,-65 41,-65c32,0 35,-2 35,-30c0,-29 -1,-30 -49,-30c-42,0 -54,5 -81,31c-28,28 -36,31 -73,26c-54,-7 -97,-52 -97,-101c0,-95 3,-96 412,-96c389,0 397,1 432,74c17,36 18,43 5,79c-25,72 -49,81 -217,85c-81,2 -153,9 -159,14c-17,14 -17,53 0,66c7,6 46,12 87,14l75,3l57,80c113,156 176,309 161,387c-24,129 -158,220 -278,189zM873,977c45,-19 105,-89 113,-132c10,-57 -1,-118 -34,-189c-38,-81 -151,-248 -163,-241c-17,11 -119,173 -153,245c-48,99 -50,174 -7,241c49,78 158,111 244,76zM357,585c18,-60 33,-113 33,-117c0,-5 -36,-8 -79,-8c-61,0 -84,4 -101,18c-22,18 -22,20 -10,112c7,52 14,99 17,103c3,4 28,7 56,5l51,-3z"></path><path d="M738,894c-35,-18 -58,-62 -58,-110c0,-51 53,-104 104,-104c49,0 92,23 111,60c53,103 -55,210 -157,154zM855,850c30,-30 26,-87 -9,-116c-37,-32 -71,-30 -107,5c-33,33 -37,65 -13,99c31,45 89,50 129,12z"></path></g></g></g></svg>